HIERARCHY
ROOT Hips
{
	OFFSET 0.00000 0.00000 0.00000
	CHANNELS 6 Xposition Yposition Zposition Zrotation Yrotation Xrotation 
	JOINT LHipJoint
	{
		OFFSET 0 0 0
		CHANNELS 3 Zrotation Yrotation Xrotation
		JOINT LeftUpLeg
		{
			OFFSET 1.48831 -1.59570 0.95625
			CHANNELS 3 Zrotation Yrotation Xrotation
			JOINT LeftLeg
			{
				OFFSET 2.20856 -6.06797 0.00000
				CHANNELS 3 Zrotation Yrotation Xrotation
				JOINT LeftFoot
				{
					OFFSET 2.62924 -7.22379 0.00000
					CHANNELS 3 Zrotation Yrotation Xrotation
					JOINT LeftToeBase
					{
						OFFSET 0.16802 -0.46163 2.41673
						CHANNELS 3 Zrotation Yrotation Xrotation
						End Site
						{
							OFFSET 0.00000 -0.00000 1.23760
						}
					}
				}
			}
		}
	}
	JOINT RHipJoint
	{
		OFFSET 0 0 0
		CHANNELS 3 Zrotation Yrotation Xrotation
		JOINT RightUpLeg
		{
			OFFSET -1.56796 -1.59570 0.95625
			CHANNELS 3 Zrotation Yrotation Xrotation
			JOINT RightLeg
			{
				OFFSET -2.29239 -6.29829 0.00000
				CHANNELS 3 Zrotation Yrotation Xrotation
				JOINT RightFoot
				{
					OFFSET -2.66963 -7.33475 0.00000
					CHANNELS 3 Zrotation Yrotation Xrotation
					JOINT RightToeBase
					{
						OFFSET -0.18185 -0.49964 2.34359
						CHANNELS 3 Zrotation Yrotation Xrotation
						End Site
						{
							OFFSET -0.00000 -0.00000 1.20477
						}
					}
				}
			}
		}
	}
	JOINT LowerBack
	{
		OFFSET 0 0 0
		CHANNELS 3 Zrotation Yrotation Xrotation
		JOINT Spine
		{
			OFFSET 0.03505 2.15832 -0.34324
			CHANNELS 3 Zrotation Yrotation Xrotation
			JOINT Spine1
			{
				OFFSET -0.01089 2.17963 0.04689
				CHANNELS 3 Zrotation Yrotation Xrotation
				JOINT Neck
				{
					OFFSET 0 0 0
					CHANNELS 3 Zrotation Yrotation Xrotation
					JOINT Neck1
					{
						OFFSET 0.04686 1.69404 0.22159
						CHANNELS 3 Zrotation Yrotation Xrotation
						JOINT Head
						{
							OFFSET 0.00265 1.69305 -0.01513
							CHANNELS 3 Zrotation Yrotation Xrotation
							End Site
							{
								OFFSET -0.00415 1.80215 -0.03034
							}
						}
					}
				}
				JOINT LeftShoulder
				{
					OFFSET 0 0 0
					CHANNELS 3 Zrotation Yrotation Xrotation
					JOINT LeftArm
					{
						OFFSET 3.67184 1.11724 -0.19002
						CHANNELS 3 Zrotation Yrotation Xrotation
						JOINT LeftForeArm
						{
							OFFSET 5.17714 -0.00000 -0.00000
							CHANNELS 3 Zrotation Yrotation Xrotation
							JOINT LeftHand
							{
								OFFSET 3.43679 -0.00000 -0.00000
								CHANNELS 3 Zrotation Yrotation Xrotation
								JOINT LeftFingerBase
								{
									OFFSET 0 0 0
									CHANNELS 3 Zrotation Yrotation Xrotation
									JOINT LeftHandIndex1
									{
										OFFSET 0.57312 -0.00000 -0.00000
										CHANNELS 3 Zrotation Yrotation Xrotation
										End Site
										{
											OFFSET 0.46206 -0.00000 -0.00000
										}
									}
								}
								JOINT LThumb
								{
									OFFSET 0 0 0
									CHANNELS 3 Zrotation Yrotation Xrotation
									End Site
									{
										OFFSET 0.46912 -0.00000 0.46912
									}
								}
							}
						}
					}
				}
				JOINT RightShoulder
				{
					OFFSET 0 0 0
					CHANNELS 3 Zrotation Yrotation Xrotation
					JOINT RightArm
					{
						OFFSET -3.59596 0.95831 -0.26050
						CHANNELS 3 Zrotation Yrotation Xrotation
						JOINT RightForeArm
						{
							OFFSET -5.23908 -0.00000 -0.00000
							CHANNELS 3 Zrotation Yrotation Xrotation
							JOINT RightHand
							{
								OFFSET -3.46485 -0.00000 -0.00000
								CHANNELS 3 Zrotation Yrotation Xrotation
								JOINT RightFingerBase
								{
									OFFSET 0 0 0
									CHANNELS 3 Zrotation Yrotation Xrotation
									JOINT RightHandIndex1
									{
										OFFSET -0.60875 -0.00000 -0.00000
										CHANNELS 3 Zrotation Yrotation Xrotation
										End Site
										{
											OFFSET -0.49079 -0.00000 -0.00000
										}
									}
								}
								JOINT RThumb
								{
									OFFSET 0 0 0
									CHANNELS 3 Zrotation Yrotation Xrotation
									End Site
									{
										OFFSET -0.49829 -0.00000 0.49829
									}
								}
							}
						}
					}
				}
			}
		}
	}
}
MOTION
Frames: 13
Frame Time: .0083333
4.1528 16.0899 -22.2640 -166.9150 -51.6828 165.4880 0.0000 0.0000 0.0000 -6.0370 0.0838 -12.5750 3.4765 11.4291 33.7410 0.8890 -13.5379 -18.0671 0.1212 -2.2442 -6.1810 0.0000 0.0000 0.0000 30.3627 -9.9003 -5.6154 -3.0907 -10.8404 31.7435 -3.1957 -7.8244 -37.1372 -0.0462 -1.3867 3.8136 1.2846 4.4948 -5.6671 -6.0178 6.1178 5.2797 -6.3322 3.1962 9.6536 -6.8876 -3.7445 12.2007 19.6954 -6.4660 2.2381 7.4422 -4.0168 -0.5556 0.0000 0.0000 0.0000 -74.7150 1.5962 5.8729 12.2956 -20.2464 -2.2035 -0.0000 0.0000 -25.1995 16.8728 10.5868 3.1895 -7.1250 0.0000 -0.0000 -9.0113 40.8662 0.9271 0.0000 0.0000 0.0000 30.7155 22.8380 37.7937 -155.8018 35.3732 -112.1790 0.0000 -0.0000 -62.9104 -34.5293 -22.8245 14.9436 7.1250 -0.0000 -0.0000 -6.1769 -56.9338 1.8111
4.1979 16.0931 -22.2822 -166.2010 -52.4915 164.8990 0.0000 0.0000 0.0000 -5.5837 -0.2758 -12.9719 3.5011 11.4651 33.8651 0.7972 -14.0369 -17.4949 0.1136 -2.1732 -5.9846 0.0000 0.0000 0.0000 30.9176 -10.1683 -5.6855 -3.0306 -10.7444 31.4228 -3.2500 -7.9880 -37.4940 -0.0616 -1.6013 4.4050 1.3352 4.4648 -5.5748 -5.8815 6.0701 5.3463 -6.2231 3.1749 9.6535 -6.9706 -3.8605 12.3580 19.8246 -6.5988 2.0148 7.5109 -4.1001 -0.6213 -0.0000 -0.0000 0.0000 -74.8513 1.7738 5.6995 12.3800 -20.3721 -2.2328 -0.0000 0.0000 -25.4175 16.8005 10.5576 3.1664 -7.1250 0.0000 -0.0000 -9.0687 40.8297 0.9414 -0.0000 -0.0000 0.0000 30.8501 22.3821 37.7411 -156.0798 35.0798 -112.3393 0.0000 -0.0000 -62.6590 -34.5697 -22.8744 14.9948 7.1250 -0.0000 -0.0000 -6.2170 -57.0003 1.8329
4.2443 16.0956 -22.3010 -165.4710 -53.2971 164.2840 0.0000 0.0000 0.0000 -5.1366 -0.6331 -13.3795 3.5255 11.5007 33.9876 0.7013 -14.5189 -16.8898 0.1043 -2.0822 -5.7329 0.0000 0.0000 0.0000 31.4871 -10.3599 -5.7515 -2.9758 -10.6557 31.1275 -3.3162 -8.1726 -37.9180 -0.0804 -1.8292 5.0340 1.3622 4.4295 -5.4525 -5.7408 6.0157 5.4170 -6.0987 3.1480 9.6362 -7.0437 -3.9793 12.4964 19.9541 -6.7315 1.7799 7.5778 -4.1829 -0.6872 0.0000 -0.0000 0.0000 -74.9925 1.9697 5.5874 12.4997 -20.5498 -2.2747 -0.0000 0.0000 -25.7345 16.7536 10.5358 3.1506 -7.1250 0.0000 -0.0000 -9.1055 40.8033 0.9513 0.0000 -0.0000 0.0000 30.9783 21.9449 37.6574 -156.3550 34.7866 -112.4970 0.0000 -0.0000 -62.4305 -34.6116 -22.9350 15.0531 7.1250 -0.0000 -0.0000 -6.2574 -57.0793 1.8568
4.2915 16.0973 -22.3202 -164.7270 -54.1011 163.6420 0.0000 0.0000 0.0000 -4.6994 -0.9873 -13.7990 3.5506 11.5371 34.1135 0.6043 -14.9777 -16.2723 0.0956 -1.9939 -5.4888 0.0000 0.0000 0.0000 32.0616 -10.4989 -5.8187 -2.9254 -10.5732 30.8538 -3.3921 -8.3697 -38.3921 -0.1024 -2.0635 5.6813 1.3678 4.3883 -5.3111 -5.5942 5.9540 5.4936 -5.9582 3.1153 9.6099 -7.1070 -4.1005 12.6178 20.0743 -6.8636 1.5367 7.6396 -4.2644 -0.7529 -0.0000 -0.0000 0.0000 -75.1425 2.1846 5.5342 12.6522 -20.7755 -2.3285 -0.0000 0.0000 -26.1300 16.7263 10.5101 3.1376 -7.1250 0.0000 -0.0000 -9.1243 40.7744 0.9598 -0.0000 -0.0000 0.0000 31.0971 21.5251 37.5453 -156.6268 34.4944 -112.6515 0.0000 -0.0000 -62.2253 -34.6623 -23.0039 15.1212 7.1250 -0.0000 -0.0000 -6.3071 -57.1699 1.8855
4.3390 16.0980 -22.3395 -163.9710 -54.9132 162.9690 0.0000 0.0000 0.0000 -4.2829 -1.3464 -14.2211 3.5775 11.5759 34.2477 0.5081 -15.4147 -15.6554 0.0883 -1.9162 -5.2741 0.0000 0.0000 0.0000 32.6215 -10.6279 -5.8896 -2.8786 -10.4959 30.5979 -3.4743 -8.5668 -38.8913 -0.1268 -2.2956 6.3233 1.3611 4.3427 -5.1494 -5.4479 5.8863 5.5817 -5.8132 3.0787 9.5826 -7.1451 -4.2301 12.7146 20.1743 -7.0005 1.2854 7.6899 -4.3465 -0.8171 -0.0000 -0.0000 0.0000 -75.2909 2.4025 5.5349 12.8281 -21.0348 -2.3912 -0.0000 0.0000 -26.5829 16.6940 10.4784 3.1219 -7.1250 0.0000 -0.0000 -9.1463 40.7391 0.9702 -0.0000 -0.0000 0.0000 31.2117 21.1180 37.3974 -156.8924 34.2063 -112.8013 0.0000 -0.0000 -62.0421 -34.7157 -23.0771 15.1935 7.1250 -0.0000 -0.0000 -6.3594 -57.2660 1.9159
4.3865 16.0977 -22.3584 -163.1930 -55.7321 162.2560 0.0000 0.0000 0.0000 -3.8839 -1.7170 -14.6457 3.6073 11.6187 34.3961 0.4138 -15.8319 -15.0486 0.0822 -1.8492 -5.0891 0.0000 0.0000 0.0000 33.1657 -10.7668 -5.9688 -2.8346 -10.4224 30.3558 -3.5584 -8.7640 -39.3949 -0.1526 -2.5168 6.9363 1.3532 4.2898 -4.9684 -5.2994 5.8080 5.6796 -5.6678 3.0364 9.5535 -7.1715 -4.3627 12.7961 20.2579 -7.1372 1.0263 7.7325 -4.4273 -0.8816 0.0000 -0.0000 0.0000 -75.4440 2.6306 5.5755 13.0254 -21.3244 -2.4625 -0.0000 0.0000 -27.0603 16.6572 10.4433 3.1043 -7.1250 0.0000 -0.0000 -9.1717 40.6997 0.9819 0.0000 -0.0000 0.0000 31.3169 20.7300 37.2237 -157.1481 33.9264 -112.9446 0.0000 -0.0000 -61.8825 -34.7936 -23.1580 15.2837 7.1250 -0.0000 -0.0000 -6.4394 -57.3769 1.9574
4.4334 16.0962 -22.3765 -162.3750 -56.5551 161.4860 0.0000 0.0000 0.0000 -3.4973 -2.1001 -15.0677 3.6412 11.6670 34.5638 0.3206 -16.2384 -14.4476 0.0765 -1.7847 -4.9110 0.0000 0.0000 0.0000 33.6916 -10.9433 -6.0569 -2.7929 -10.3521 30.1246 -3.6404 -8.9531 -39.8787 -0.1783 -2.7197 7.4994 1.3605 4.2267 -4.7679 -5.1469 5.7138 5.7870 -5.5301 2.9872 9.5230 -7.1909 -4.4924 12.8688 20.3241 -7.2664 0.7605 7.7680 -4.5035 -0.9481 -0.0000 -0.0000 0.0000 -75.6045 2.8643 5.6291 13.2306 -21.6241 -2.5376 -0.0000 0.0000 -27.5182 16.5849 10.4022 3.0781 -7.1250 0.0000 -0.0000 -9.2267 40.6513 0.9990 -0.0000 -0.0000 0.0000 31.4125 20.3704 37.0371 -157.3914 33.6581 -113.0799 0.0000 -0.0000 -61.7329 -34.8777 -23.2364 15.3761 7.1250 -0.0000 -0.0000 -6.5274 -57.4865 2.0016
4.4800 16.0935 -22.3935 -161.4930 -57.3749 160.6370 0.0000 0.0000 0.0000 -3.1082 -2.4988 -15.4928 3.6804 11.7225 34.7571 0.2276 -16.6388 -13.8469 0.0704 -1.7117 -4.7096 0.0000 0.0000 0.0000 34.2118 -11.1647 -6.1578 -2.7531 -10.2841 29.9019 -3.7164 -9.1382 -40.3276 -0.2026 -2.8986 7.9965 1.4030 4.1566 -4.5523 -4.9887 5.6064 5.9069 -5.4086 2.9340 9.4997 -7.2038 -4.6200 12.9377 20.3782 -7.3879 0.4760 7.7988 -4.5757 -1.0209 -0.0000 0.0000 0.0000 -75.7717 3.0897 5.6823 13.4415 -21.9307 -2.6159 -0.0000 0.0000 -27.9269 16.4743 10.3891 3.0526 -7.1250 0.0000 -0.0000 -9.3203 40.6284 1.0147 -0.0000 0.0000 0.0000 31.4967 20.0377 36.8299 -157.6209 33.4028 -113.2066 0.0000 -0.0000 -61.5840 -34.9764 -23.3235 15.4819 7.1250 -0.0000 -0.0000 -6.6318 -57.6098 2.0535
4.5259 16.0898 -22.4091 -160.5540 -58.1931 159.7160 0.0000 0.0000 0.0000 -2.7274 -2.9115 -15.9215 3.7254 11.7857 34.9781 0.1337 -17.0404 -13.2406 0.0632 -1.6223 -4.4629 0.0000 0.0000 0.0000 34.7133 -11.4428 -6.2761 -2.7154 -10.2194 29.6902 -3.7842 -9.3111 -40.7287 -0.2250 -3.0536 8.4280 1.4740 4.0759 -4.3253 -4.8271 5.4820 6.0380 -5.3023 2.8743 9.4832 -7.2142 -4.7403 13.0133 20.4210 -7.4952 0.1718 7.8264 -4.6414 -1.1029 -0.0000 -0.0000 0.0000 -75.9514 3.3098 5.7204 13.6558 -22.2405 -2.6964 -0.0000 0.0000 -28.2719 16.3401 10.4027 3.0303 -7.1250 0.0000 -0.0000 -9.4394 40.6305 1.0274 -0.0000 -0.0000 0.0000 31.5672 19.7397 36.6113 -157.8356 33.1624 -113.3244 0.0000 -0.0000 -61.4344 -35.0742 -23.4068 15.5854 7.1250 -0.0000 -0.0000 -6.7359 -57.7287 2.1053
4.5714 16.0851 -22.4233 -159.5520 -59.0006 158.7230 0.0000 0.0000 0.0000 -2.3492 -3.3313 -16.3599 3.7764 11.8567 35.2269 0.0392 -17.4403 -12.6305 0.0559 -1.5259 -4.1971 0.0000 0.0000 0.0000 35.2018 -11.7714 -6.4181 -2.6809 -10.1597 29.4955 -3.8435 -9.4697 -41.0804 -0.2449 -3.1846 8.7931 1.5748 3.9866 -4.0941 -4.6598 5.3431 6.1769 -5.2082 2.8095 9.4741 -7.2241 -4.8529 13.1109 20.4484 -7.5875 -0.1573 7.8505 -4.7010 -1.1983 -0.0000 0.0000 0.0000 -76.1482 3.5312 5.7472 13.8745 -22.5551 -2.7798 -0.0000 0.0000 -28.5531 16.2166 10.4415 3.0172 -7.1250 0.0000 -0.0000 -9.5543 40.6594 1.0333 -0.0000 0.0000 0.0000 31.6239 19.4699 36.3863 -158.0370 32.9352 -113.4343 0.0000 -0.0000 -61.2756 -35.1642 -23.4798 15.6787 7.1250 -0.0000 -0.0000 -6.8327 -57.8339 2.1530
4.6163 16.0793 -22.4359 -158.5090 -59.7988 157.6760 0.0000 0.0000 0.0000 -1.9900 -3.7612 -16.8038 3.8325 11.9341 35.4992 -0.0537 -17.8289 -12.0286 0.0491 -1.4307 -3.9346 0.0000 0.0000 0.0000 35.6655 -12.1338 -6.5840 -2.6514 -10.1082 29.3278 -3.8971 -9.6149 -41.3972 -0.2625 -3.2963 9.1047 1.6988 3.8946 -3.8501 -4.4948 5.1985 6.3203 -5.1308 2.7434 9.4650 -7.2310 -4.9643 13.2277 20.4644 -7.6746 -0.5076 7.8723 -4.7592 -1.3041 -0.0000 -0.0000 0.0000 -76.3535 3.7491 5.7695 14.0955 -22.8711 -2.8651 -0.0000 0.0000 -28.7713 16.1094 10.4998 3.0127 -7.1250 0.0000 -0.0000 -9.6589 40.7097 1.0328 -0.0000 -0.0000 0.0000 31.6741 19.2111 36.1513 -158.2296 32.7166 -113.5387 0.0000 -0.0000 -61.1051 -35.2495 -23.5488 15.7673 7.1250 -0.0000 -0.0000 -6.9247 -57.9335 2.1988
4.6608 16.0726 -22.4471 -157.4580 -60.5873 156.6050 0.0000 0.0000 0.0000 -1.6675 -4.1928 -17.2489 3.8928 12.0164 35.7900 -0.1437 -18.2027 -11.4450 0.0435 -1.3464 -3.7025 0.0000 0.0000 0.0000 36.0879 -12.5243 -6.7762 -2.6285 -10.0678 29.1967 -3.9460 -9.7440 -41.6828 -0.2774 -3.3875 9.3595 1.8267 3.8056 -3.6048 -4.3369 5.0577 6.4743 -5.0623 2.6795 9.4690 -7.2255 -5.0812 13.3593 20.4665 -7.7637 -0.8808 7.8892 -4.8193 -1.4195 -0.0000 0.0000 0.0000 -76.5626 3.9471 5.7894 14.3128 -23.1802 -2.9501 -0.0000 0.0000 -28.9244 16.0363 10.5391 3.0095 -7.1250 0.0000 -0.0000 -9.7301 40.7435 1.0324 -0.0000 0.0000 0.0000 31.7195 18.9531 35.8963 -158.4177 32.5018 -113.6401 0.0000 -0.0000 -60.9105 -35.3285 -23.6137 15.8502 7.1250 -0.0000 -0.0000 -7.0102 -58.0273 2.2419
4.7051 16.0651 -22.4570 -156.4180 -61.3598 155.5290 0.0000 0.0000 0.0000 -1.3868 -4.6180 -17.6948 3.9568 12.1027 36.0964 -0.2299 -18.5567 -10.8847 0.0392 -1.2778 -3.5134 0.0000 0.0000 0.0000 36.4654 -12.9255 -6.9947 -2.6131 -10.0407 29.1088 -3.9939 -9.8488 -41.9502 -0.2910 -3.4688 9.5868 1.9538 3.7260 -3.3489 -4.1900 4.9296 6.6282 -5.0038 2.6217 9.4694 -7.2098 -5.2065 13.5151 20.4579 -7.8612 -1.2704 7.9032 -4.8851 -1.5433 0.0000 -0.0000 0.0000 -76.7681 4.1350 5.8151 14.5222 -23.4763 -3.0330 -0.0000 0.0000 -29.0282 15.9847 10.5436 3.0005 -7.1250 0.0000 -0.0000 -9.7758 40.7435 1.0373 0.0000 -0.0000 0.0000 31.7653 18.6814 35.6247 -158.6028 32.2890 -113.7393 0.0000 -0.0000 -60.7014 -35.4093 -23.6797 15.9350 7.1250 -0.0000 -0.0000 -7.0980 -58.1226 2.2865
